<svg width="24" height="24" viewBox="0 0 24 24" fill="none" xmlns="http://www.w3.org/2000/svg">
<path d="M20.2923 21.7065L20.9987 22.4142L22.4142 21.0013L21.7077 20.2935L20.2923 21.7065ZM17.2217 15.7995L16.5153 15.0918L15.0998 16.5047L15.8063 17.2125L17.2217 15.7995ZM2 10.5H1H2ZM10.5 2V1V2ZM21.7077 20.2935L17.2217 15.7995L15.8063 17.2125L20.2923 21.7065L21.7077 20.2935ZM18 10.5C18 12.4891 17.2098 14.3968 15.8033 15.8033L17.2175 17.2175C18.9991 15.4359 20 13.0196 20 10.5H18ZM15.8033 15.8033C14.3968 17.2098 12.4891 18 10.5 18V20C13.0196 20 15.4359 18.9991 17.2175 17.2175L15.8033 15.8033ZM10.5 18C8.51088 18 6.60322 17.2098 5.1967 15.8033L3.78249 17.2175C5.56408 18.9991 7.98044 20 10.5 20V18ZM5.1967 15.8033C3.79018 14.3968 3 12.4891 3 10.5H1C1 13.0196 2.00089 15.4359 3.78249 17.2175L5.1967 15.8033ZM3 10.5C3 8.51088 3.79018 6.60322 5.1967 5.1967L3.78249 3.78249C2.00089 5.56408 1 7.98044 1 10.5H3ZM5.1967 5.1967C6.60322 3.79018 8.51088 3 10.5 3V1C7.98044 1 5.56408 2.00089 3.78249 3.78249L5.1967 5.1967ZM10.5 3C12.4891 3 14.3968 3.79018 15.8033 5.1967L17.2175 3.78249C15.4359 2.00089 13.0196 1 10.5 1V3ZM15.8033 5.1967C17.2098 6.60322 18 8.51088 18 10.5H20C20 7.98044 18.9991 5.56408 17.2175 3.78249L15.8033 5.1967Z" fill="#FFFFFE"/>
</svg>
