<svg width="115" height="115" viewBox="0 0 115 115" fill="none" xmlns="http://www.w3.org/2000/svg">
<g clip-path="url(#clip0_15_585)">
<g filter="url(#filter0_f_15_585)">
<path fill-rule="evenodd" clip-rule="evenodd" d="M107.983 59.3126L95.987 59.0035C95.9956 58.6703 95.9999 58.3358 95.9999 58C95.9999 57.6642 95.9956 57.3297 95.987 56.9965L107.983 56.6873C107.994 57.1235 108 57.5611 108 58C108 58.4389 107.994 58.8765 107.983 59.3126ZM107.848 54.0732L95.884 55.0026C95.8323 54.3367 95.7635 53.6762 95.6781 53.0217L107.577 51.4695C107.69 52.3307 107.78 53.1988 107.848 54.0732ZM107.171 48.8836L95.3694 51.0577C95.2489 50.4038 95.1117 49.7561 94.9583 49.1149L106.629 46.3227C106.831 47.1682 107.012 48.022 107.171 48.8836ZM105.953 43.7938L94.4458 47.1976C94.2576 46.5613 94.0532 45.9321 93.8329 45.3102L105.145 41.3042C105.435 42.1245 105.705 42.9545 105.953 43.7938ZM104.206 38.8606L93.1212 43.4573C92.8671 42.8446 92.5974 42.2398 92.3124 41.6434L103.14 36.4698C103.515 37.2556 103.871 38.0528 104.206 38.8606ZM101.95 34.1383L91.4087 39.8734C91.0915 39.2902 90.7592 38.7161 90.4126 38.1516L100.638 31.872C101.095 32.6148 101.532 33.3705 101.95 34.1383ZM99.2104 29.6776L89.3269 36.4831C88.9501 35.936 88.5593 35.399 88.1549 34.8727L97.6699 27.5608C98.2013 28.2523 98.715 28.9582 99.2104 29.6776ZM96.0211 25.5272L86.8999 33.3248C86.468 32.8196 86.0231 32.3258 85.5656 31.8439L94.2688 23.5823C94.8695 24.2151 95.4539 24.8637 96.0211 25.5272ZM92.4176 21.7311L84.156 30.4343C83.6741 29.9768 83.1803 29.5319 82.6751 29.1L90.4727 19.9788C91.1362 20.5461 91.7848 21.1304 92.4176 21.7311ZM88.4391 18.33L81.1272 27.8451C80.6009 27.4406 80.0639 27.0498 79.5168 26.673L86.3223 16.7895C87.0418 17.2849 87.7476 17.7986 88.4391 18.33ZM84.1279 15.3615L77.8483 25.5874C77.2838 25.2407 76.7097 24.9084 76.1265 24.5912L81.8616 14.0504C82.6294 14.4681 83.3851 14.9054 84.1279 15.3615ZM79.5301 12.86L74.3565 23.6875C73.7601 23.4026 73.1553 23.1328 72.5426 22.8787L77.1393 11.794C77.9471 12.129 78.7443 12.4846 79.5301 12.86ZM74.6957 10.8554L70.6897 22.167C70.0678 21.9468 69.4385 21.7423 68.8023 21.5541L72.206 10.0469C73.0453 10.2952 73.8754 10.5649 74.6957 10.8554ZM69.6772 9.37094L66.885 21.0416C66.2438 20.8882 65.5961 20.751 64.9422 20.6305L67.1163 8.82912C67.9778 8.98784 68.8317 9.16865 69.6772 9.37094ZM64.5304 8.42261L62.9782 20.3218C62.3237 20.2364 61.6633 20.1676 60.9973 20.1159L61.9267 8.15193C62.8011 8.21986 63.6692 8.31028 64.5304 8.42261ZM59.3126 8.0169L59.0034 20.0129C58.6702 20.0043 58.3357 20 57.9999 20C57.6641 20 57.3296 20.0043 56.9964 20.0129L56.6873 8.0169C57.1234 8.00565 57.561 8 57.9999 8C58.4388 8 58.8764 8.00565 59.3126 8.0169Z" fill="white"/>
</g>
<circle cx="58" cy="58" r="44" stroke="#FDC0FF" stroke-opacity="0.07" stroke-width="12" stroke-dasharray="2.67 2.67"/>
<path fill-rule="evenodd" clip-rule="evenodd" d="M107.983 59.3126L95.987 59.0035C95.9956 58.6703 95.9999 58.3358 95.9999 58C95.9999 57.6642 95.9956 57.3297 95.987 56.9965L107.983 56.6873C107.994 57.1235 108 57.5611 108 58C108 58.4389 107.994 58.8765 107.983 59.3126ZM107.848 54.0732L95.884 55.0026C95.8323 54.3367 95.7635 53.6762 95.6781 53.0217L107.577 51.4695C107.69 52.3307 107.78 53.1988 107.848 54.0732ZM107.171 48.8836L95.3694 51.0577C95.2489 50.4038 95.1117 49.7561 94.9583 49.1149L106.629 46.3227C106.831 47.1682 107.012 48.022 107.171 48.8836ZM105.953 43.7938L94.4458 47.1976C94.2576 46.5613 94.0532 45.9321 93.8329 45.3102L105.145 41.3042C105.435 42.1245 105.705 42.9545 105.953 43.7938ZM104.206 38.8606L93.1212 43.4573C92.8671 42.8446 92.5974 42.2398 92.3124 41.6434L103.14 36.4698C103.515 37.2556 103.871 38.0528 104.206 38.8606ZM101.95 34.1383L91.4087 39.8734C91.0915 39.2902 90.7592 38.7161 90.4126 38.1516L100.638 31.872C101.095 32.6148 101.532 33.3705 101.95 34.1383ZM99.2104 29.6776L89.3269 36.4831C88.9501 35.936 88.5593 35.399 88.1549 34.8727L97.6699 27.5608C98.2013 28.2523 98.715 28.9582 99.2104 29.6776ZM96.0211 25.5272L86.8999 33.3248C86.468 32.8196 86.0231 32.3258 85.5656 31.8439L94.2688 23.5823C94.8695 24.2151 95.4539 24.8637 96.0211 25.5272ZM92.4176 21.7311L84.156 30.4343C83.6741 29.9768 83.1803 29.5319 82.6751 29.1L90.4727 19.9788C91.1362 20.5461 91.7848 21.1304 92.4176 21.7311ZM88.4391 18.33L81.1272 27.8451C80.6009 27.4406 80.0639 27.0498 79.5168 26.673L86.3223 16.7895C87.0418 17.2849 87.7476 17.7986 88.4391 18.33ZM84.1279 15.3615L77.8483 25.5874C77.2838 25.2407 76.7097 24.9084 76.1265 24.5912L81.8616 14.0504C82.6294 14.4681 83.3851 14.9054 84.1279 15.3615ZM79.5301 12.86L74.3565 23.6875C73.7601 23.4026 73.1553 23.1328 72.5426 22.8787L77.1393 11.794C77.9471 12.129 78.7443 12.4846 79.5301 12.86ZM74.6957 10.8554L70.6897 22.167C70.0678 21.9468 69.4385 21.7423 68.8023 21.5541L72.206 10.0469C73.0453 10.2952 73.8754 10.5649 74.6957 10.8554ZM69.6772 9.37094L66.885 21.0416C66.2438 20.8882 65.5961 20.751 64.9422 20.6305L67.1163 8.82912C67.9778 8.98784 68.8317 9.16865 69.6772 9.37094ZM64.5304 8.42261L62.9782 20.3218C62.3237 20.2364 61.6633 20.1676 60.9973 20.1159L61.9267 8.15193C62.8011 8.21986 63.6692 8.31028 64.5304 8.42261ZM59.3126 8.0169L59.0034 20.0129C58.6702 20.0043 58.3357 20 57.9999 20C57.6641 20 57.3296 20.0043 56.9964 20.0129L56.6873 8.0169C57.1234 8.00565 57.561 8 57.9999 8C58.4388 8 58.8764 8.00565 59.3126 8.0169Z" fill="#A28BE3"/>
<path d="M57 48C51.67 52.55 49 56.48 49 59.8C49 64.78 52.8 68 57 68C61.2 68 65 64.78 65 59.8C65 56.48 62.33 52.55 57 48ZM57 66C53.65 66 51 63.43 51 59.8C51 57.46 52.95 54.36 57 50.66C61.05 54.36 63 57.45 63 59.8C63 63.43 60.35 66 57 66ZM52.83 60C53.2 60 53.5 60.26 53.57 60.62C53.98 62.84 55.85 63.6 57.21 63.49C57.64 63.47 58 63.81 58 64.24C58 64.64 57.68 64.97 57.28 64.99C55.15 65.12 52.66 63.9 52.09 60.87C52.0726 60.7628 52.0787 60.6531 52.1079 60.5485C52.1371 60.4438 52.1887 60.3468 52.259 60.2641C52.3294 60.1813 52.4169 60.1149 52.5155 60.0693C52.6141 60.0237 52.7214 60 52.83 60Z" fill="white" fill-opacity="0.7"/>
</g>
<defs>
<filter id="filter0_f_15_585" x="47.6873" y="-1" width="69.3127" height="69.3127" filterUnits="userSpaceOnUse" color-interpolation-filters="sRGB">
<feFlood flood-opacity="0" result="BackgroundImageFix"/>
<feBlend mode="normal" in="SourceGraphic" in2="BackgroundImageFix" result="shape"/>
<feGaussianBlur stdDeviation="4.5" result="effect1_foregroundBlur_15_585"/>
</filter>
<clipPath id="clip0_15_585">
<rect width="115" height="115" fill="white"/>
</clipPath>
</defs>
</svg>
