<svg width="115" height="115" viewBox="0 0 115 115" fill="none" xmlns="http://www.w3.org/2000/svg">
<path d="M100.5 90.3521C105.254 82.7007 108 73.671 108 64C108 36.3858 85.6142 14 58 14C30.3858 14 8 36.3858 8 64C8 73.671 10.7457 82.7007 15.5 90.3521" stroke="#FDC0FF" stroke-opacity="0.07" stroke-width="7" stroke-dasharray="2.67 2.67"/>
<path d="M58 14C85.6142 14 108 36.3858 108 64C108 73.671 105.254 82.7007 100.5 90.3521" stroke="url(#paint0_linear_168_19)" stroke-opacity="0.3" stroke-width="7" stroke-dasharray="2.67 2.67"/>
<path d="M50 62.7143L57.5 70M57.5 70L65 62.7143M57.5 70V53" stroke="white" stroke-opacity="0.7" stroke-width="2" stroke-linecap="round" stroke-linejoin="round"/>
<path d="M90.0225 107V98.6H91.0305V102.332H94.9665V98.6H95.9745V107H94.9665V103.244H91.0305V107H90.0225ZM97.9335 107V101.132H98.8815V107H97.9335ZM98.4135 100.22C98.2055 100.22 98.0295 100.152 97.8855 100.016C97.7495 99.88 97.6815 99.708 97.6815 99.5C97.6815 99.284 97.7495 99.108 97.8855 98.972C98.0295 98.836 98.2055 98.768 98.4135 98.768C98.6215 98.768 98.7935 98.836 98.9295 98.972C99.0655 99.108 99.1335 99.284 99.1335 99.5C99.1335 99.708 99.0655 99.88 98.9295 100.016C98.7935 100.152 98.6215 100.22 98.4135 100.22ZM100.587 104.096V103.928C100.587 103.312 100.711 102.784 100.959 102.344C101.207 101.904 101.543 101.564 101.967 101.324C102.391 101.084 102.855 100.964 103.359 100.964C103.975 100.964 104.447 101.084 104.775 101.324C105.111 101.556 105.359 101.816 105.519 102.104H105.687V101.132H106.587V108.368C106.587 108.688 106.499 108.94 106.323 109.124C106.147 109.308 105.891 109.4 105.555 109.4H101.571V108.56H105.303C105.543 108.56 105.663 108.44 105.663 108.2V105.968H105.495C105.399 106.144 105.263 106.316 105.087 106.484C104.911 106.652 104.683 106.792 104.403 106.904C104.123 107.008 103.775 107.06 103.359 107.06C102.855 107.06 102.391 106.94 101.967 106.7C101.543 106.46 101.207 106.12 100.959 105.68C100.711 105.232 100.587 104.704 100.587 104.096ZM103.611 106.22C104.219 106.22 104.711 106.028 105.087 105.644C105.471 105.26 105.663 104.732 105.663 104.06V103.964C105.663 103.284 105.471 102.756 105.087 102.38C104.711 101.996 104.219 101.804 103.611 101.804C103.011 101.804 102.515 101.996 102.123 102.38C101.739 102.756 101.547 103.284 101.547 103.964V104.06C101.547 104.732 101.739 105.26 102.123 105.644C102.515 106.028 103.011 106.22 103.611 106.22ZM108.574 107V98.6H109.522V102.068H109.69C109.77 101.892 109.89 101.728 110.05 101.576C110.218 101.416 110.43 101.284 110.686 101.18C110.95 101.076 111.282 101.024 111.682 101.024C112.122 101.024 112.514 101.12 112.858 101.312C113.21 101.496 113.49 101.768 113.698 102.128C113.906 102.48 114.01 102.92 114.01 103.448V107H113.062V103.52C113.062 102.936 112.914 102.512 112.618 102.248C112.33 101.984 111.938 101.852 111.442 101.852C110.874 101.852 110.41 102.036 110.05 102.404C109.698 102.772 109.522 103.32 109.522 104.048V107H108.574Z" fill="white" fill-opacity="0.7"/>
<path d="M2.25297 107V98.6H3.26097V106.088H7.50897V107H2.25297ZM11.5049 107.168C10.9129 107.168 10.3889 107.044 9.93288 106.796C9.48488 106.548 9.13288 106.2 8.87688 105.752C8.62888 105.296 8.50488 104.76 8.50488 104.144V103.988C8.50488 103.38 8.62888 102.848 8.87688 102.392C9.13288 101.936 9.48488 101.584 9.93288 101.336C10.3889 101.088 10.9129 100.964 11.5049 100.964C12.0969 100.964 12.6169 101.088 13.0649 101.336C13.5209 101.584 13.8729 101.936 14.1209 102.392C14.3769 102.848 14.5049 103.38 14.5049 103.988V104.144C14.5049 104.76 14.3769 105.296 14.1209 105.752C13.8729 106.2 13.5209 106.548 13.0649 106.796C12.6169 107.044 12.0969 107.168 11.5049 107.168ZM11.5049 106.316C12.1289 106.316 12.6249 106.12 12.9929 105.728C13.3689 105.328 13.5569 104.792 13.5569 104.12V104.012C13.5569 103.34 13.3689 102.808 12.9929 102.416C12.6249 102.016 12.1289 101.816 11.5049 101.816C10.8889 101.816 10.3929 102.016 10.0169 102.416C9.64088 102.808 9.45288 103.34 9.45288 104.012V104.12C9.45288 104.792 9.64088 105.328 10.0169 105.728C10.3929 106.12 10.8889 106.316 11.5049 106.316ZM16.9097 107L15.7337 101.132H16.6937L17.6657 106.364H17.8337L19.1177 101.132H20.6897L21.9737 106.364H22.1417L23.1137 101.132H24.0737L22.8977 107H21.2777L19.9817 101.768H19.8257L18.5297 107H16.9097Z" fill="white" fill-opacity="0.7"/>
<rect x="56" y="4" width="3" height="20" rx="1.5" fill="#D9D9D9"/>
<defs>
<linearGradient id="paint0_linear_168_19" x1="60.5" y1="14" x2="108" y2="64.5" gradientUnits="userSpaceOnUse">
<stop stop-color="white"/>
<stop offset="1" stop-color="#FDC0FF" stop-opacity="0"/>
</linearGradient>
</defs>
</svg>
