<svg width="115" height="115" viewBox="0 0 115 115" fill="none" xmlns="http://www.w3.org/2000/svg">
<path d="M57.25 -1.43324e-06L57.25 114.5" stroke="white" stroke-opacity="0.07"/>
<path d="M114.75 57.5L0.249999 57.5" stroke="white" stroke-opacity="0.07"/>
<circle cx="56.75" cy="57.5" r="44" stroke="#FDC0FF" stroke-opacity="0.07" stroke-width="12" stroke-dasharray="2.67 2.67"/>
<g filter="url(#filter0_f_15_574)">
<path d="M89.9979 27.6481L95.1034 33.5741L98.7501 19.5L84.8925 21.7222L89.9979 27.6481ZM89.9979 27.6481L22.1689 90.6111M22.1689 90.6111L22.5194 91.0561C23.9376 92.8566 23.6296 95.4655 21.8311 96.8861V96.8861C20.0117 98.3233 17.368 97.9929 15.9583 96.1521L15.8993 96.0751C14.5222 94.2769 14.8435 91.7063 16.6208 90.3023L17.0905 89.9313C18.6714 88.6825 20.9721 88.9905 22.1689 90.6111V90.6111Z" stroke="url(#paint0_linear_15_574)" stroke-width="1.33333"/>
</g>
<path d="M89.998 27.6481L95.1034 33.5741L98.7501 19.5L84.8925 21.7222L89.998 27.6481ZM89.998 27.6481L22.1689 90.6111M22.1689 90.6111L22.5194 91.0561C23.9376 92.8566 23.6296 95.4655 21.8311 96.8861V96.8861C20.0117 98.3233 17.368 97.9929 15.9583 96.1521L15.8993 96.0751C14.5222 94.2769 14.8435 91.7063 16.6208 90.3023L17.0905 89.9313C18.6714 88.6825 20.9721 88.9905 22.1689 90.6111V90.6111Z" stroke="url(#paint1_linear_15_574)" stroke-width="1.33333"/>
<path d="M54.0589 34.1666V25.7666H56.0149L58.9429 33.5306H59.0989V25.7666H60.0949V34.1666H58.1389L55.2229 26.3906H55.0549V34.1666H54.0589Z" fill="white" fill-opacity="0.7"/>
<path d="M84.4959 62.1666V53.7666H89.6679V54.6786H85.5039V57.4866H89.3319V58.3986H85.5039V61.2546H89.7279V62.1666H84.4959Z" fill="white" fill-opacity="0.7"/>
<path d="M26.812 62.1666L25.444 53.7666H26.452L27.64 61.5186H27.808L29.356 53.7666H31.156L32.692 61.5186H32.86L34.048 53.7666H35.056L33.688 62.1666H31.888L30.34 54.3666H30.172L28.624 62.1666H26.812Z" fill="white" fill-opacity="0.7"/>
<path d="M57.1596 89.0013C56.5516 89.0013 56.0076 88.8933 55.5276 88.6773C55.0476 88.4613 54.6676 88.1373 54.3876 87.7053C54.1156 87.2653 53.9796 86.7173 53.9796 86.0613V85.8093H54.9756V86.0613C54.9756 86.7573 55.1796 87.2773 55.5876 87.6213C55.9956 87.9573 56.5196 88.1253 57.1596 88.1253C57.8156 88.1253 58.3156 87.9773 58.6596 87.6813C59.0036 87.3853 59.1756 87.0133 59.1756 86.5653C59.1756 86.2533 59.0956 86.0053 58.9356 85.8213C58.7836 85.6373 58.5676 85.4893 58.2876 85.3773C58.0076 85.2573 57.6796 85.1533 57.3036 85.0653L56.6796 84.9093C56.1916 84.7813 55.7596 84.6253 55.3836 84.4413C55.0076 84.2573 54.7116 84.0173 54.4956 83.7213C54.2876 83.4173 54.1836 83.0293 54.1836 82.5573C54.1836 82.0853 54.2996 81.6773 54.5316 81.3333C54.7716 80.9893 55.1036 80.7253 55.5276 80.5413C55.9596 80.3573 56.4556 80.2653 57.0156 80.2653C57.5836 80.2653 58.0916 80.3653 58.5396 80.5653C58.9956 80.7573 59.3516 81.0453 59.6076 81.4293C59.8716 81.8053 60.0036 82.2813 60.0036 82.8573V83.3613H59.0076V82.8573C59.0076 82.4493 58.9196 82.1213 58.7436 81.8733C58.5756 81.6253 58.3396 81.4413 58.0356 81.3213C57.7396 81.2013 57.3996 81.1413 57.0156 81.1413C56.4636 81.1413 56.0196 81.2653 55.6836 81.5133C55.3476 81.7533 55.1796 82.0973 55.1796 82.5453C55.1796 82.8413 55.2516 83.0813 55.3956 83.2653C55.5396 83.4493 55.7436 83.6013 56.0076 83.7213C56.2716 83.8333 56.5876 83.9333 56.9556 84.0213L57.5796 84.1773C58.0676 84.2813 58.5036 84.4253 58.8876 84.6093C59.2796 84.7853 59.5916 85.0293 59.8236 85.3413C60.0556 85.6453 60.1716 86.0453 60.1716 86.5413C60.1716 87.0373 60.0476 87.4693 59.7996 87.8373C59.5516 88.2053 59.1996 88.4933 58.7436 88.7013C58.2956 88.9013 57.7676 89.0013 57.1596 89.0013Z" fill="white" fill-opacity="0.7"/>
<defs>
<filter id="filter0_f_15_574" x="10.3784" y="14.6803" width="93.2727" height="87.767" filterUnits="userSpaceOnUse" color-interpolation-filters="sRGB">
<feFlood flood-opacity="0" result="BackgroundImageFix"/>
<feBlend mode="normal" in="SourceGraphic" in2="BackgroundImageFix" result="shape"/>
<feGaussianBlur stdDeviation="2" result="effect1_foregroundBlur_15_574"/>
</filter>
<linearGradient id="paint0_linear_15_574" x1="92.7501" y1="22.1667" x2="23.4167" y2="96.1667" gradientUnits="userSpaceOnUse">
<stop stop-color="#634DA0"/>
<stop offset="1" stop-color="#8760F3"/>
</linearGradient>
<linearGradient id="paint1_linear_15_574" x1="80.0834" y1="22.8333" x2="21.4167" y2="96.1667" gradientUnits="userSpaceOnUse">
<stop stop-color="#A28BE2"/>
<stop offset="1" stop-color="#D9CEFF"/>
</linearGradient>
</defs>
</svg>
